<?xml version="1.0" encoding="utf-8" standalone="no"?><!DOCTYPE svg PUBLIC "-//W3C//DTD SVG 1.1//EN" "http://www.w3.org/Graphics/SVG/1.1/DTD/svg11.dtd"><svg width="784px" height="809px" version="1.1" xmlns="http://www.w3.org/2000/svg"><desc /><defs><linearGradient id="fs1" x1="0.99999988079071px" y1="-1.58945727690707E-08px" x2="0.999999761581421px" y2="0.999999761581421px"><stop offset="0%" stop-color="#D3D3D3" stop-opacity="1" /><stop offset="100%" stop-color="#FFFFFF" stop-opacity="1" /></linearGradient><linearGradient id="fs2" x1="0.999999761581421px" y1="-2.72478377638663E-08px" x2="0.999999701976776px" y2="0.999999701976776px"><stop offset="0%" stop-color="#FFFFFF" stop-opacity="0.5490196" /><stop offset="100%" stop-color="#FFFFFF" stop-opacity="0.1568628" /></linearGradient><linearGradient id="fs3" x1="0.999999105930328px" y1="-5.08626328610262E-07px" x2="0.999998927116394px" y2="0.999999463558197px"><stop offset="0%" stop-color="#D3D3D3" stop-opacity="1" /><stop offset="100%" stop-color="#FFFFFF" stop-opacity="1" /></linearGradient><linearGradient id="fs4" x1="0.999998927116394px" y1="-8.71930808443722E-07px" x2="0.999998450279236px" y2="0.999998688697815px"><stop offset="0%" stop-color="#FFFFFF" stop-opacity="0.5490196" /><stop offset="100%" stop-color="#FFFFFF" stop-opacity="0.1568628" /></linearGradient><linearGradient id="fs5" x1="0.999998450279236px" y1="-6.90964043315034E-07px" x2="0.999997735023499px" y2="0.999999105930328px"><stop offset="0%" stop-color="#D3D3D3" stop-opacity="1" /><stop offset="100%" stop-color="#FFFFFF" stop-opacity="1" /></linearGradient><linearGradient id="fs6" x1="0.999998092651367px" y1="-7.9009913633854E-07px" x2="0.999997735023499px" y2="0.999999225139618px"><stop offset="0%" stop-color="#FFFFFF" stop-opacity="0.5490196" /><stop offset="100%" stop-color="#FFFFFF" stop-opacity="0.1568628" /></linearGradient><linearGradient id="fs7" x1="0.999996960163116px" y1="-3.05175785797474E-06px" x2="0.999996483325958px" y2="0.999996960163116px"><stop offset="0%" stop-color="#D3D3D3" stop-opacity="1" /><stop offset="100%" stop-color="#FFFFFF" stop-opacity="1" /></linearGradient><linearGradient id="fs8" x1="0.999996483325958px" y1="-7.84737767389743E-06px" x2="0.999995648860931px" y2="0.99999213218689px"><stop offset="0%" stop-color="#FFFFFF" stop-opacity="0.5490196" /><stop offset="100%" stop-color="#FFFFFF" stop-opacity="0.1568628" /></linearGradient><linearGradient id="fs9" x1="0.999983191490173px" y1="-3.05175785797474E-06px" x2="0.99998015165329px" y2="0.999996960163116px"><stop offset="0%" stop-color="#D3D3D3" stop-opacity="1" /><stop offset="100%" stop-color="#FFFFFF" stop-opacity="1" /></linearGradient><linearGradient id="fs10" x1="0.999983191490173px" y1="-3.93775189877488E-06px" x2="0.999981701374054px" y2="0.999996066093445px"><stop offset="0%" stop-color="#FFFFFF" stop-opacity="0.5490196" /><stop offset="100%" stop-color="#FFFFFF" stop-opacity="0.1568628" /></linearGradient><linearGradient id="fs11" x1="0.999977111816406px" y1="-3.75600961888267E-06px" x2="0.999974071979523px" y2="0.999996244907379px"><stop offset="0%" stop-color="#D3D3D3" stop-opacity="1" /><stop offset="100%" stop-color="#FFFFFF" stop-opacity="1" /></linearGradient><linearGradient id="fs12" x1="0.99998015165329px" y1="-3.21237666867091E-06px" x2="0.999977111816406px" y2="0.9999960064888px"><stop offset="0%" stop-color="#FFFFFF" stop-opacity="0.5490196" /><stop offset="100%" stop-color="#FFFFFF" stop-opacity="0.1568628" /></linearGradient><linearGradient id="fs13" x1="0.999999403953552px" y1="-1.07709104213427E-06px" x2="0.999999403953552px" y2="0.999998569488525px"><stop offset="0%" stop-color="#D3D3D3" stop-opacity="1" /><stop offset="100%" stop-color="#FFFFFF" stop-opacity="1" /></linearGradient><linearGradient id="fs14" x1="0.999994814395905px" y1="-3.75600975530688E-05px" x2="0.999994814395905px" y2="0.999962449073792px"><stop offset="0%" stop-color="#FFFFFF" stop-opacity="0.5490196" /><stop offset="100%" stop-color="#FFFFFF" stop-opacity="0.1568628" /></linearGradient><linearGradient id="fs15" x1="0.99993896484375px" y1="-2.71267367679684E-06px" x2="0.999935925006866px" y2="0.999994575977325px"><stop offset="0%" stop-color="#D3D3D3" stop-opacity="1" /><stop offset="100%" stop-color="#FFFFFF" stop-opacity="1" /></linearGradient><linearGradient id="fs16" x1="0.999948143959045px" y1="-8.21627145342063E-06px" x2="0.999945044517517px" y2="0.999991774559021px"><stop offset="0%" stop-color="#FFFFFF" stop-opacity="0.5490196" /><stop offset="100%" stop-color="#FFFFFF" stop-opacity="0.1568628" /></linearGradient><linearGradient id="fs17" x1="0.99998015165329px" y1="-2.288818359375E-05px" x2="0.999977111816406px" y2="0.999977111816406px"><stop offset="0%" stop-color="#D3D3D3" stop-opacity="1" /><stop offset="100%" stop-color="#FFFFFF" stop-opacity="1" /></linearGradient><linearGradient id="fs18" x1="0.999969482421875px" y1="-6.89962616888806E-05px" x2="0.999966442584991px" y2="0.99993097782135px"><stop offset="0%" stop-color="#FFFFFF" stop-opacity="0.5490196" /><stop offset="100%" stop-color="#FFFFFF" stop-opacity="0.1568628" /></linearGradient><linearGradient id="fs19" x1="0.999995648860931px" y1="-1.09863285615575E-05px" x2="0.99999475479126px" y2="0.999988377094269px"><stop offset="0%" stop-color="#FFD700" stop-opacity="1" /><stop offset="100%" stop-color="#FFFFE0" stop-opacity="1" /></linearGradient><linearGradient id="fs20" x1="0.999993026256561px" y1="-3.1569907150697E-05px" x2="0.999993026256561px" y2="0.999968409538269px"><stop offset="0%" stop-color="#FFFFFF" stop-opacity="0.5490196" /><stop offset="100%" stop-color="#FFFFFF" stop-opacity="0.1568628" /></linearGradient><linearGradient id="fs21" x1="0.999243140220642px" y1="-0.000100708006357308px" x2="0.999237060546875px" y2="0.99989926815033px"><stop offset="0%" stop-color="#FFD700" stop-opacity="1" /><stop offset="100%" stop-color="#FFFFE0" stop-opacity="1" /></linearGradient><linearGradient id="fs22" x1="0.999780297279358px" y1="-0.0002593994140625px" x2="0.999774158000946px" y2="0.999740600585938px"><stop offset="0%" stop-color="#FFFFFF" stop-opacity="0.5490196" /><stop offset="100%" stop-color="#FFFFFF" stop-opacity="0.1568628" /></linearGradient><clipPath id="cp1"><path d="M 8 419.7578 L 44.57986 419.7578  54.57986 408.8789  54.57986 398  8 398 " /></clipPath><clipPath id="cp2"><path d="M 628 438 L 758 438  768 448  768 488  628 488 z " /></clipPath><clipPath id="cp3"><path d="M 758 438 L 768 448  758 448 z " /></clipPath></defs><g transform="matrix(1 0 0 1 0 0)"><rect x="8px" y="8px" width="140px" height="60px" fill="url(#fs1)" /><path d="M 148 28 C 78 28  8 28  8 43 L 8 8  148 8  148 28 z " fill="url(#fs2)" /><rect x="8px" y="8px" width="140px" height="60px" fill="none" stroke="#000000" stroke-width="1px" stroke-dashoffset="0" stroke-linejoin="round" stroke-miterlimit="10" /><text x="34px" y="46.0911445617676px" font-family="Microsoft Sans Serif" font-size="10pt" font-weight="bold" fill="#000000">HostProgram</text><line x1="78px" y1="68px" x2="78px" y2="708px" stroke="#000000" stroke-width="1px" stroke-dasharray="10,10" stroke-dashoffset="0" stroke-linejoin="miter" stroke-miterlimit="10" /></g><g transform="matrix(1 0 0 1 0 0)"><rect x="198px" y="122px" width="140px" height="60px" fill="url(#fs3)" /><path d="M 338 142 C 268 142  198 142  198 157 L 198 122  338 122  338 142 z " fill="url(#fs4)" /><rect x="198px" y="122px" width="140px" height="60px" fill="none" stroke="#000000" stroke-width="1px" stroke-dashoffset="0" stroke-linejoin="round" stroke-miterlimit="10" /><text x="223px" y="160.09114074707px" font-family="Microsoft Sans Serif" font-size="10pt" font-weight="bold" fill="#000000">Native library</text><line x1="268px" y1="182px" x2="268px" y2="688px" stroke="#000000" stroke-width="1px" stroke-dasharray="10,10" stroke-dashoffset="0" stroke-linejoin="miter" stroke-miterlimit="10" /></g><g transform="matrix(1 0 0 1 0 0)"><rect x="68px" y="108px" width="20px" height="530px" fill="url(#fs5)" /><path d="M 88 284.6667 C 78 284.6667  68 284.6667  68 417.1667 L 68 108  88 108  88 284.6667 z " fill="url(#fs6)" /><rect x="68px" y="108px" width="20px" height="530px" fill="none" stroke="#000000" stroke-width="1px" stroke-dashoffset="0" stroke-linejoin="round" stroke-miterlimit="10" /></g><g transform="matrix(1 0 0 1 0 0)"><line x1="88px" y1="137px" x2="198px" y2="137px" stroke="#000000" stroke-width="1px" stroke-dasharray="5,4" stroke-dashoffset="0" stroke-linejoin="miter" stroke-miterlimit="10" /><line x1="198px" y1="137px" x2="180px" y2="129px" stroke="#000000" stroke-width="1px" stroke-dashoffset="0" stroke-linejoin="round" stroke-miterlimit="10" /><line x1="198px" y1="137px" x2="180px" y2="145px" stroke="#000000" stroke-width="1px" stroke-dashoffset="0" stroke-linejoin="round" stroke-miterlimit="10" /><text x="129px" y="129.09114074707px" font-family="Microsoft Sans Serif" font-size="10pt" fill="#000000">Load</text></g><g transform="matrix(1 0 0 1 0 0)"><line x1="248px" y1="648px" x2="288px" y2="688px" stroke="#000000" stroke-width="2px" stroke-dashoffset="0" stroke-linejoin="miter" stroke-miterlimit="10" /><line x1="248px" y1="688px" x2="288px" y2="648px" stroke="#000000" stroke-width="2px" stroke-dashoffset="0" stroke-linejoin="miter" stroke-miterlimit="10" /></g><g transform="matrix(1 0 0 1 0 0)"><rect x="448px" y="283px" width="140px" height="60px" fill="url(#fs7)" /><path d="M 588 303 C 518 303  448 303  448 318 L 448 283  588 283  588 303 z " fill="url(#fs8)" /><rect x="448px" y="283px" width="140px" height="60px" fill="none" stroke="#000000" stroke-width="1px" stroke-dashoffset="0" stroke-linejoin="round" stroke-miterlimit="10" /><text x="457px" y="321.091156005859px" font-family="Microsoft Sans Serif" font-size="10pt" font-weight="bold" fill="#000000">.Net Core assembly</text><line x1="518px" y1="343px" x2="518px" y2="638px" stroke="#000000" stroke-width="1px" stroke-dasharray="10,10" stroke-dashoffset="0" stroke-linejoin="miter" stroke-miterlimit="10" /></g><g transform="matrix(1 0 0 1 0 0)"><rect x="258px" y="208px" width="20px" height="160px" fill="url(#fs9)" /><path d="M 278 261.3333 C 268 261.3333  258 261.3333  258 301.3333 L 258 208  278 208  278 261.3333 z " fill="url(#fs10)" /><rect x="258px" y="208px" width="20px" height="160px" fill="none" stroke="#000000" stroke-width="1px" stroke-dashoffset="0" stroke-linejoin="round" stroke-miterlimit="10" /></g><g transform="matrix(1 0 0 1 0 0)"><line x1="278px" y1="298px" x2="448px" y2="298px" stroke="#000000" stroke-width="1px" stroke-dasharray="5,4" stroke-dashoffset="0" stroke-linejoin="miter" stroke-miterlimit="10" /><line x1="448px" y1="298px" x2="430px" y2="290px" stroke="#000000" stroke-width="1px" stroke-dashoffset="0" stroke-linejoin="round" stroke-miterlimit="10" /><line x1="448px" y1="298px" x2="430px" y2="306px" stroke="#000000" stroke-width="1px" stroke-dashoffset="0" stroke-linejoin="round" stroke-miterlimit="10" /><text x="318px" y="290.091156005859px" font-family="Microsoft Sans Serif" font-size="10pt" fill="#000000">initializeCoreClr</text></g><g transform="matrix(1 0 0 1 0 0)"><rect x="258px" y="428px" width="20px" height="130px" fill="url(#fs11)" /><path d="M 278 471.3333 C 268 471.3333  258 471.3333  258 503.8333 L 258 428  278 428  278 471.3333 z " fill="url(#fs12)" /><rect x="258px" y="428px" width="20px" height="130px" fill="none" stroke="#000000" stroke-width="1px" stroke-dashoffset="0" stroke-linejoin="round" stroke-miterlimit="10" /></g><g transform="matrix(1 0 0 1 0 0)"><line x1="278px" y1="223px" x2="378px" y2="223px" stroke="#000000" stroke-width="1px" stroke-dashoffset="0" stroke-linejoin="miter" stroke-miterlimit="10" /><line x1="378px" y1="223px" x2="378px" y2="268px" stroke="#000000" stroke-width="1px" stroke-dashoffset="0" stroke-linejoin="miter" stroke-miterlimit="10" /><line x1="378px" y1="268px" x2="278px" y2="268px" stroke="#000000" stroke-width="1px" stroke-dashoffset="0" stroke-linejoin="miter" stroke-miterlimit="10" /><polygon points="278,268 295,276 295,260 " fill="#000000" /><text x="293px" y="240.09114074707px" font-family="Microsoft Sans Serif" font-size="10pt" fill="#000000">Load corecrl</text></g><g transform="matrix(1 0 0 1 0 0)"><line x1="278px" y1="313px" x2="378px" y2="313px" stroke="#000000" stroke-width="1px" stroke-dashoffset="0" stroke-linejoin="miter" stroke-miterlimit="10" /><line x1="378px" y1="313px" x2="378px" y2="358px" stroke="#000000" stroke-width="1px" stroke-dashoffset="0" stroke-linejoin="miter" stroke-miterlimit="10" /><line x1="378px" y1="358px" x2="278px" y2="358px" stroke="#000000" stroke-width="1px" stroke-dashoffset="0" stroke-linejoin="miter" stroke-miterlimit="10" /><polygon points="278,358 295,366 295,350 " fill="#000000" /><text x="289px" y="340.091156005859px" font-family="Microsoft Sans Serif" font-size="10pt" fill="#000000">createManagedDelegate</text></g><g transform="matrix(1 0 0 1 0 0)"><path d="M 8 419.7578 L 44.57986 419.7578  54.57986 408.8789  54.57986 398  8 398 " fill="url(#fs13)" /><g clip-path="url(#cp1)"><path d="M 54.57986 405.2526 C 31.28993 405.2526  8 405.2526  8 410.692 L 8 398  54.57986 398  54.57986 405.2526 z " fill="url(#fs14)" /></g><path fill="none" d="M 8 419.7578 L 44.57986 419.7578  54.57986 408.8789  54.57986 398  8 398 " stroke="#000000" stroke-width="1px" stroke-dashoffset="0" stroke-linejoin="round" stroke-miterlimit="10" /><text x="10px" y="416.091156005859px" font-family="Microsoft Sans Serif" font-size="10pt" font-weight="bold" fill="#000000">loop</text><rect x="8px" y="398px" width="590px" height="170px" fill="none" stroke="#000000" stroke-width="1px" stroke-dashoffset="0" stroke-linejoin="round" stroke-miterlimit="10" /></g><g transform="matrix(1 0 0 1 0 0)"><rect x="508px" y="448px" width="20px" height="90px" fill="url(#fs15)" /><path d="M 528 478 C 518 478  508 478  508 500.5 L 508 448  528 448  528 478 z " fill="url(#fs16)" /><rect x="508px" y="448px" width="20px" height="90px" fill="none" stroke="#000000" stroke-width="1px" stroke-dashoffset="0" stroke-linejoin="round" stroke-miterlimit="10" /></g><g transform="matrix(1 0 0 1 0 0)"><line x1="88px" y1="433px" x2="258px" y2="433px" stroke="#000000" stroke-width="1px" stroke-dashoffset="0" stroke-linejoin="miter" stroke-miterlimit="10" /><polygon points="258,433 240,425 240,441 " fill="#000000" /><text x="149px" y="425.091156005859px" font-family="Microsoft Sans Serif" font-size="10pt" fill="#000000">stdc call</text></g><g transform="matrix(1 0 0 1 0 0)"><line x1="278px" y1="453px" x2="508px" y2="453px" stroke="#000000" stroke-width="1px" stroke-dashoffset="0" stroke-linejoin="miter" stroke-miterlimit="10" /><polygon points="508,453 490,445 490,461 " fill="#000000" /><text x="343px" y="445.091156005859px" font-family="Microsoft Sans Serif" font-size="10pt" fill="#000000">call static method</text></g><g transform="matrix(1 0 0 1 0 0)"><line x1="508px" y1="532px" x2="278px" y2="532px" stroke="#000000" stroke-width="1px" stroke-dasharray="5,4" stroke-dashoffset="0" stroke-linejoin="miter" stroke-miterlimit="10" /><line x1="278px" y1="532px" x2="296px" y2="540px" stroke="#000000" stroke-width="1px" stroke-dashoffset="0" stroke-linejoin="round" stroke-miterlimit="10" /><line x1="278px" y1="532px" x2="296px" y2="524px" stroke="#000000" stroke-width="1px" stroke-dashoffset="0" stroke-linejoin="round" stroke-miterlimit="10" /></g><g transform="matrix(1 0 0 1 0 0)"><line x1="258px" y1="547px" x2="88px" y2="547px" stroke="#000000" stroke-width="1px" stroke-dasharray="5,4" stroke-dashoffset="0" stroke-linejoin="miter" stroke-miterlimit="10" /><line x1="88px" y1="547px" x2="106px" y2="555px" stroke="#000000" stroke-width="1px" stroke-dashoffset="0" stroke-linejoin="round" stroke-miterlimit="10" /><line x1="88px" y1="547px" x2="106px" y2="539px" stroke="#000000" stroke-width="1px" stroke-dashoffset="0" stroke-linejoin="round" stroke-miterlimit="10" /></g><g transform="matrix(1 0 0 1 0 0)"><rect x="258px" y="598px" width="20px" height="40px" fill="url(#fs17)" /><path d="M 278 611.3333 C 268 611.3333  258 611.3333  258 621.3333 L 258 598  278 598  278 611.3333 z " fill="url(#fs18)" /><rect x="258px" y="598px" width="20px" height="40px" fill="none" stroke="#000000" stroke-width="1px" stroke-dashoffset="0" stroke-linejoin="round" stroke-miterlimit="10" /></g><g transform="matrix(1 0 0 1 0 0)"><line x1="88px" y1="605px" x2="258px" y2="605px" stroke="#000000" stroke-width="1px" stroke-dashoffset="0" stroke-linejoin="miter" stroke-miterlimit="10" /><polygon points="258,605 240,597 240,613 " fill="#000000" /><text x="153px" y="597.091125488281px" font-family="Microsoft Sans Serif" font-size="10pt" fill="#000000">Unload</text></g><g transform="matrix(1 0 0 1 0 0)"><line x1="498px" y1="598px" x2="538px" y2="638px" stroke="#000000" stroke-width="2px" stroke-dashoffset="0" stroke-linejoin="miter" stroke-miterlimit="10" /><line x1="498px" y1="638px" x2="538px" y2="598px" stroke="#000000" stroke-width="2px" stroke-dashoffset="0" stroke-linejoin="miter" stroke-miterlimit="10" /></g><g transform="matrix(1 0 0 1 0 0)"><line x1="278px" y1="618px" x2="498px" y2="618px" stroke="#000000" stroke-width="1px" stroke-dashoffset="0" stroke-linejoin="miter" stroke-miterlimit="10" /><polygon points="498,618 480,610 480,626 " fill="#000000" /><text x="340px" y="610.091125488281px" font-family="Microsoft Sans Serif" font-size="10pt" fill="#000000">shutdownCoreClr</text></g><g transform="matrix(1 0 0 1 0 0)"><polygon points="628,438 758,438 768,448 768,488 628,488 628,438 " fill="url(#fs19)" /><g clip-path="url(#cp2)"><path d="M 768 454.6667 C 698 454.6667  628 454.6667  628 467.1667 L 628 438  768 438  768 454.6667 z " fill="url(#fs20)" /></g><polygon fill="none" points="628,438 758,438 768,448 768,488 628,488 628,438 " stroke="#FFA500" stroke-width="1px" stroke-dashoffset="0" stroke-linejoin="round" stroke-miterlimit="10" /><polygon points="758,438 768,448 758,448 758,438 " fill="url(#fs21)" /><g clip-path="url(#cp3)"><path d="M 768 441.3333 C 763 441.3333  758 441.3333  758 443.8333 L 758 438  768 438  768 441.3333 z " fill="url(#fs22)" /></g><polygon fill="none" points="758,438 768,448 758,448 758,438 " stroke="#FFA500" stroke-width="1px" stroke-dashoffset="0" stroke-linejoin="round" stroke-miterlimit="10" /><text x="659px" y="470.091156005859px" font-family="Microsoft Sans Serif" font-size="10pt" fill="#000000">static method</text></g><g transform="matrix(1 0 0 1 0 0)"><polyline points="528,491 628,475 " fill="none" stroke="#000000" stroke-width="1px" stroke-dasharray="3,3" stroke-dashoffset="0" stroke-linejoin="miter" stroke-miterlimit="10" /></g></svg>