<?xml version="1.0" encoding="utf-8" standalone="no"?><!DOCTYPE svg PUBLIC "-//W3C//DTD SVG 1.1//EN" "http://www.w3.org/Graphics/SVG/1.1/DTD/svg11.dtd"><svg width="816px" height="851px" version="1.1" xmlns="http://www.w3.org/2000/svg"><desc /><defs><linearGradient id="fs1" x1="0.999999761581421px" y1="-2.54313164305131E-07px" x2="0.999999701976776px" y2="0.999999642372131px"><stop offset="0%" stop-color="#D3D3D3" stop-opacity="1" /><stop offset="100%" stop-color="#FFFFFF" stop-opacity="1" /></linearGradient><linearGradient id="fs2" x1="0.999999701976776px" y1="-4.35965404221861E-07px" x2="0.999999463558197px" y2="0.999999344348907px"><stop offset="0%" stop-color="#FFFFFF" stop-opacity="0.5490196" /><stop offset="100%" stop-color="#FFFFFF" stop-opacity="0.1568628" /></linearGradient><linearGradient id="fs3" x1="0.999998927116394px" y1="-1.01725265722052E-06px" x2="0.999998688697815px" y2="0.99999874830246px"><stop offset="0%" stop-color="#D3D3D3" stop-opacity="1" /><stop offset="100%" stop-color="#FFFFFF" stop-opacity="1" /></linearGradient><linearGradient id="fs4" x1="0.999998271465302px" y1="-2.61579248217458E-06px" x2="0.999997794628143px" y2="0.999996960163116px"><stop offset="0%" stop-color="#FFFFFF" stop-opacity="0.5490196" /><stop offset="100%" stop-color="#FFFFFF" stop-opacity="0.1568628" /></linearGradient><linearGradient id="fs5" x1="0.999995827674866px" y1="-9.21285391086712E-07px" x2="0.999995052814484px" y2="0.999999105930328px"><stop offset="0%" stop-color="#D3D3D3" stop-opacity="1" /><stop offset="100%" stop-color="#FFFFFF" stop-opacity="1" /></linearGradient><linearGradient id="fs6" x1="0.999995827674866px" y1="-7.9009913633854E-07px" x2="0.999995410442352px" y2="0.999998807907104px"><stop offset="0%" stop-color="#FFFFFF" stop-opacity="0.5490196" /><stop offset="100%" stop-color="#FFFFFF" stop-opacity="0.1568628" /></linearGradient><linearGradient id="fs7" x1="0.999996960163116px" y1="-3.56038412974158E-06px" x2="0.999996483325958px" y2="0.999996423721313px"><stop offset="0%" stop-color="#D3D3D3" stop-opacity="1" /><stop offset="100%" stop-color="#FFFFFF" stop-opacity="1" /></linearGradient><linearGradient id="fs8" x1="0.999995648860931px" y1="-9.59123917709803E-06px" x2="0.99999475479126px" y2="0.999990403652191px"><stop offset="0%" stop-color="#FFFFFF" stop-opacity="0.5490196" /><stop offset="100%" stop-color="#FFFFFF" stop-opacity="0.1568628" /></linearGradient><linearGradient id="fs9" x1="0.999977111816406px" y1="-3.05175785797474E-06px" x2="0.999975562095642px" y2="0.999996960163116px"><stop offset="0%" stop-color="#D3D3D3" stop-opacity="1" /><stop offset="100%" stop-color="#FFFFFF" stop-opacity="1" /></linearGradient><linearGradient id="fs10" x1="0.99998015165329px" y1="-5.25033601661562E-06px" x2="0.99997866153717px" y2="0.99999475479126px"><stop offset="0%" stop-color="#FFFFFF" stop-opacity="0.5490196" /><stop offset="100%" stop-color="#FFFFFF" stop-opacity="0.1568628" /></linearGradient><linearGradient id="fs11" x1="0.999972522258759px" y1="-4.6950121941336E-06px" x2="0.999969482421875px" y2="0.999995291233063px"><stop offset="0%" stop-color="#D3D3D3" stop-opacity="1" /><stop offset="100%" stop-color="#FFFFFF" stop-opacity="1" /></linearGradient><linearGradient id="fs12" x1="0.999977111816406px" y1="-6.42475333734183E-06px" x2="0.999974071979523px" y2="0.999993562698364px"><stop offset="0%" stop-color="#FFFFFF" stop-opacity="0.5490196" /><stop offset="100%" stop-color="#FFFFFF" stop-opacity="0.1568628" /></linearGradient><linearGradient id="fs13" x1="0.999999403953552px" y1="-1.07709104213427E-06px" x2="0.999999403953552px" y2="0.999998569488525px"><stop offset="0%" stop-color="#D3D3D3" stop-opacity="1" /><stop offset="100%" stop-color="#FFFFFF" stop-opacity="1" /></linearGradient><linearGradient id="fs14" x1="0.999992191791534px" y1="-0.000112680289021228px" x2="0.999992191791534px" y2="0.999887347221375px"><stop offset="0%" stop-color="#FFFFFF" stop-opacity="0.5490196" /><stop offset="100%" stop-color="#FFFFFF" stop-opacity="0.1568628" /></linearGradient><linearGradient id="fs15" x1="0.999932885169983px" y1="-9.49435798247578E-06px" x2="0.999926745891571px" y2="0.999990522861481px"><stop offset="0%" stop-color="#D3D3D3" stop-opacity="1" /><stop offset="100%" stop-color="#FFFFFF" stop-opacity="1" /></linearGradient><linearGradient id="fs16" x1="0.999942004680634px" y1="-1.40850361276534E-05px" x2="0.999935925006866px" y2="0.999985933303833px"><stop offset="0%" stop-color="#FFFFFF" stop-opacity="0.5490196" /><stop offset="100%" stop-color="#FFFFFF" stop-opacity="0.1568628" /></linearGradient><linearGradient id="fs17" x1="0.99996030330658px" y1="-2.59399421338458E-05px" x2="0.99995881319046px" y2="0.999974071979523px"><stop offset="0%" stop-color="#D3D3D3" stop-opacity="1" /><stop offset="100%" stop-color="#FFFFFF" stop-opacity="1" /></linearGradient><linearGradient id="fs18" x1="0.999963402748108px" y1="-7.69573744037189E-05px" x2="0.999963402748108px" y2="0.999923050403595px"><stop offset="0%" stop-color="#FFFFFF" stop-opacity="0.5490196" /><stop offset="100%" stop-color="#FFFFFF" stop-opacity="0.1568628" /></linearGradient><linearGradient id="fs19" x1="0.999993920326233px" y1="-6.10351571594947E-06px" x2="0.999993920326233px" y2="0.999993920326233px"><stop offset="0%" stop-color="#FFD700" stop-opacity="1" /><stop offset="100%" stop-color="#FFFFE0" stop-opacity="1" /></linearGradient><linearGradient id="fs20" x1="0.999993026256561px" y1="-1.78896152647212E-05px" x2="0.999993026256561px" y2="0.999982118606567px"><stop offset="0%" stop-color="#FFFFFF" stop-opacity="0.5490196" /><stop offset="100%" stop-color="#FFFFFF" stop-opacity="0.1568628" /></linearGradient><linearGradient id="fs21" x1="0.999212622642517px" y1="-0.000244140625px" x2="0.99920654296875px" y2="0.999755859375px"><stop offset="0%" stop-color="#FFD700" stop-opacity="1" /><stop offset="100%" stop-color="#FFFFE0" stop-opacity="1" /></linearGradient><linearGradient id="fs22" x1="0.999755859375px" y1="-0.00066121417330578px" x2="0.999749779701233px" y2="0.999338805675507px"><stop offset="0%" stop-color="#FFFFFF" stop-opacity="0.5490196" /><stop offset="100%" stop-color="#FFFFFF" stop-opacity="0.1568628" /></linearGradient><clipPath id="cp1"><path d="M 40 461.7578 L 76.57986 461.7578  86.57986 450.8789  86.57986 440  40 440 " /></clipPath><clipPath id="cp2"><path d="M 660 480 L 790 480  800 490  800 530  660 530 z " /></clipPath><clipPath id="cp3"><path d="M 790 480 L 800 490  790 490 z " /></clipPath></defs><g transform="matrix(1 0 0 1 0 0)"><rect x="40px" y="50px" width="140px" height="60px" fill="url(#fs1)" /><path d="M 180 70 C 110 70  40 70  40 85 L 40 50  180 50  180 70 z " fill="url(#fs2)" /><rect x="40px" y="50px" width="140px" height="60px" fill="none" stroke="#000000" stroke-width="1px" stroke-dashoffset="0" stroke-linejoin="round" stroke-miterlimit="10" /><text x="66px" y="88.0911407470703px" font-family="Microsoft Sans Serif" font-size="10pt" font-weight="bold" fill="#000000">HostProgram</text><line x1="110px" y1="110px" x2="110px" y2="750px" stroke="#000000" stroke-width="1px" stroke-dasharray="10,10" stroke-dashoffset="0" stroke-linejoin="miter" stroke-miterlimit="10" /></g><g transform="matrix(1 0 0 1 0 0)"><rect x="230px" y="164px" width="140px" height="60px" fill="url(#fs3)" /><path d="M 370 184 C 300 184  230 184  230 199 L 230 164  370 164  370 184 z " fill="url(#fs4)" /><rect x="230px" y="164px" width="140px" height="60px" fill="none" stroke="#000000" stroke-width="1px" stroke-dashoffset="0" stroke-linejoin="round" stroke-miterlimit="10" /><text x="255px" y="202.09114074707px" font-family="Microsoft Sans Serif" font-size="10pt" font-weight="bold" fill="#000000">Native library</text><line x1="300px" y1="224px" x2="300px" y2="730px" stroke="#000000" stroke-width="1px" stroke-dasharray="10,10" stroke-dashoffset="0" stroke-linejoin="miter" stroke-miterlimit="10" /></g><g transform="matrix(1 0 0 1 0 0)"><rect x="100px" y="150px" width="20px" height="530px" fill="url(#fs5)" /><path d="M 120 326.6667 C 110 326.6667  100 326.6667  100 459.1667 L 100 150  120 150  120 326.6667 z " fill="url(#fs6)" /><rect x="100px" y="150px" width="20px" height="530px" fill="none" stroke="#000000" stroke-width="1px" stroke-dashoffset="0" stroke-linejoin="round" stroke-miterlimit="10" /></g><g transform="matrix(1 0 0 1 0 0)"><line x1="120px" y1="179px" x2="230px" y2="179px" stroke="#000000" stroke-width="1px" stroke-dasharray="5,4" stroke-dashoffset="0" stroke-linejoin="miter" stroke-miterlimit="10" /><line x1="230px" y1="179px" x2="212px" y2="171px" stroke="#000000" stroke-width="1px" stroke-dashoffset="0" stroke-linejoin="round" stroke-miterlimit="10" /><line x1="230px" y1="179px" x2="212px" y2="187px" stroke="#000000" stroke-width="1px" stroke-dashoffset="0" stroke-linejoin="round" stroke-miterlimit="10" /><text x="161px" y="171.09114074707px" font-family="Microsoft Sans Serif" font-size="10pt" fill="#000000">Load</text></g><g transform="matrix(1 0 0 1 0 0)"><line x1="280px" y1="690px" x2="320px" y2="730px" stroke="#000000" stroke-width="2px" stroke-dashoffset="0" stroke-linejoin="miter" stroke-miterlimit="10" /><line x1="280px" y1="730px" x2="320px" y2="690px" stroke="#000000" stroke-width="2px" stroke-dashoffset="0" stroke-linejoin="miter" stroke-miterlimit="10" /></g><g transform="matrix(1 0 0 1 0 0)"><rect x="480px" y="325px" width="140px" height="60px" fill="url(#fs7)" /><path d="M 620 345 C 550 345  480 345  480 360 L 480 325  620 325  620 345 z " fill="url(#fs8)" /><rect x="480px" y="325px" width="140px" height="60px" fill="none" stroke="#000000" stroke-width="1px" stroke-dashoffset="0" stroke-linejoin="round" stroke-miterlimit="10" /><text x="489px" y="363.091156005859px" font-family="Microsoft Sans Serif" font-size="10pt" font-weight="bold" fill="#000000">.Net Core assembly</text><line x1="550px" y1="385px" x2="550px" y2="680px" stroke="#000000" stroke-width="1px" stroke-dasharray="10,10" stroke-dashoffset="0" stroke-linejoin="miter" stroke-miterlimit="10" /></g><g transform="matrix(1 0 0 1 0 0)"><rect x="290px" y="250px" width="20px" height="160px" fill="url(#fs9)" /><path d="M 310 303.3333 C 300 303.3333  290 303.3333  290 343.3333 L 290 250  310 250  310 303.3333 z " fill="url(#fs10)" /><rect x="290px" y="250px" width="20px" height="160px" fill="none" stroke="#000000" stroke-width="1px" stroke-dashoffset="0" stroke-linejoin="round" stroke-miterlimit="10" /></g><g transform="matrix(1 0 0 1 0 0)"><line x1="310px" y1="340px" x2="480px" y2="340px" stroke="#000000" stroke-width="1px" stroke-dasharray="5,4" stroke-dashoffset="0" stroke-linejoin="miter" stroke-miterlimit="10" /><line x1="480px" y1="340px" x2="462px" y2="332px" stroke="#000000" stroke-width="1px" stroke-dashoffset="0" stroke-linejoin="round" stroke-miterlimit="10" /><line x1="480px" y1="340px" x2="462px" y2="348px" stroke="#000000" stroke-width="1px" stroke-dashoffset="0" stroke-linejoin="round" stroke-miterlimit="10" /><text x="350px" y="332.091156005859px" font-family="Microsoft Sans Serif" font-size="10pt" fill="#000000">initializeCoreClr</text></g><g transform="matrix(1 0 0 1 0 0)"><rect x="290px" y="470px" width="20px" height="130px" fill="url(#fs11)" /><path d="M 310 513.3333 C 300 513.3333  290 513.3333  290 545.8333 L 290 470  310 470  310 513.3333 z " fill="url(#fs12)" /><rect x="290px" y="470px" width="20px" height="130px" fill="none" stroke="#000000" stroke-width="1px" stroke-dashoffset="0" stroke-linejoin="round" stroke-miterlimit="10" /></g><g transform="matrix(1 0 0 1 0 0)"><line x1="310px" y1="265px" x2="410px" y2="265px" stroke="#000000" stroke-width="1px" stroke-dashoffset="0" stroke-linejoin="miter" stroke-miterlimit="10" /><line x1="410px" y1="265px" x2="410px" y2="310px" stroke="#000000" stroke-width="1px" stroke-dashoffset="0" stroke-linejoin="miter" stroke-miterlimit="10" /><line x1="410px" y1="310px" x2="310px" y2="310px" stroke="#000000" stroke-width="1px" stroke-dashoffset="0" stroke-linejoin="miter" stroke-miterlimit="10" /><polygon points="310,310 327,318 327,302 " fill="#000000" /><text x="325px" y="282.091156005859px" font-family="Microsoft Sans Serif" font-size="10pt" fill="#000000">Load corecrl</text></g><g transform="matrix(1 0 0 1 0 0)"><line x1="310px" y1="355px" x2="410px" y2="355px" stroke="#000000" stroke-width="1px" stroke-dashoffset="0" stroke-linejoin="miter" stroke-miterlimit="10" /><line x1="410px" y1="355px" x2="410px" y2="400px" stroke="#000000" stroke-width="1px" stroke-dashoffset="0" stroke-linejoin="miter" stroke-miterlimit="10" /><line x1="410px" y1="400px" x2="310px" y2="400px" stroke="#000000" stroke-width="1px" stroke-dashoffset="0" stroke-linejoin="miter" stroke-miterlimit="10" /><polygon points="310,400 327,408 327,392 " fill="#000000" /><text x="321px" y="382.091156005859px" font-family="Microsoft Sans Serif" font-size="10pt" fill="#000000">createManagedDelegate</text></g><g transform="matrix(1 0 0 1 0 0)"><path d="M 40 461.7578 L 76.57986 461.7578  86.57986 450.8789  86.57986 440  40 440 " fill="url(#fs13)" /><g clip-path="url(#cp1)"><path d="M 86.57986 447.2526 C 63.28993 447.2526  40 447.2526  40 452.692 L 40 440  86.57986 440  86.57986 447.2526 z " fill="url(#fs14)" /></g><path fill="none" d="M 40 461.7578 L 76.57986 461.7578  86.57986 450.8789  86.57986 440  40 440 " stroke="#000000" stroke-width="1px" stroke-dashoffset="0" stroke-linejoin="round" stroke-miterlimit="10" /><text x="42px" y="458.091156005859px" font-family="Microsoft Sans Serif" font-size="10pt" font-weight="bold" fill="#000000">loop</text><rect x="40px" y="440px" width="590px" height="170px" fill="none" stroke="#000000" stroke-width="1px" stroke-dashoffset="0" stroke-linejoin="round" stroke-miterlimit="10" /></g><g transform="matrix(1 0 0 1 0 0)"><rect x="540px" y="490px" width="20px" height="90px" fill="url(#fs15)" /><path d="M 560 520 C 550 520  540 520  540 542.5 L 540 490  560 490  560 520 z " fill="url(#fs16)" /><rect x="540px" y="490px" width="20px" height="90px" fill="none" stroke="#000000" stroke-width="1px" stroke-dashoffset="0" stroke-linejoin="round" stroke-miterlimit="10" /></g><g transform="matrix(1 0 0 1 0 0)"><line x1="120px" y1="475px" x2="290px" y2="475px" stroke="#000000" stroke-width="1px" stroke-dashoffset="0" stroke-linejoin="miter" stroke-miterlimit="10" /><polygon points="290,475 272,467 272,483 " fill="#000000" /><text x="184px" y="467.091156005859px" font-family="Microsoft Sans Serif" font-size="10pt" fill="#000000">std call</text></g><g transform="matrix(1 0 0 1 0 0)"><line x1="310px" y1="495px" x2="540px" y2="495px" stroke="#000000" stroke-width="1px" stroke-dashoffset="0" stroke-linejoin="miter" stroke-miterlimit="10" /><polygon points="540,495 522,487 522,503 " fill="#000000" /><text x="375px" y="487.091156005859px" font-family="Microsoft Sans Serif" font-size="10pt" fill="#000000">call static method</text></g><g transform="matrix(1 0 0 1 0 0)"><line x1="540px" y1="574px" x2="310px" y2="574px" stroke="#000000" stroke-width="1px" stroke-dasharray="5,4" stroke-dashoffset="0" stroke-linejoin="miter" stroke-miterlimit="10" /><line x1="310px" y1="574px" x2="328px" y2="582px" stroke="#000000" stroke-width="1px" stroke-dashoffset="0" stroke-linejoin="round" stroke-miterlimit="10" /><line x1="310px" y1="574px" x2="328px" y2="566px" stroke="#000000" stroke-width="1px" stroke-dashoffset="0" stroke-linejoin="round" stroke-miterlimit="10" /></g><g transform="matrix(1 0 0 1 0 0)"><line x1="290px" y1="589px" x2="120px" y2="589px" stroke="#000000" stroke-width="1px" stroke-dasharray="5,4" stroke-dashoffset="0" stroke-linejoin="miter" stroke-miterlimit="10" /><line x1="120px" y1="589px" x2="138px" y2="597px" stroke="#000000" stroke-width="1px" stroke-dashoffset="0" stroke-linejoin="round" stroke-miterlimit="10" /><line x1="120px" y1="589px" x2="138px" y2="581px" stroke="#000000" stroke-width="1px" stroke-dashoffset="0" stroke-linejoin="round" stroke-miterlimit="10" /></g><g transform="matrix(1 0 0 1 0 0)"><rect x="290px" y="640px" width="20px" height="40px" fill="url(#fs17)" /><path d="M 310 653.3333 C 300 653.3333  290 653.3333  290 663.3333 L 290 640  310 640  310 653.3333 z " fill="url(#fs18)" /><rect x="290px" y="640px" width="20px" height="40px" fill="none" stroke="#000000" stroke-width="1px" stroke-dashoffset="0" stroke-linejoin="round" stroke-miterlimit="10" /></g><g transform="matrix(1 0 0 1 0 0)"><line x1="120px" y1="647px" x2="290px" y2="647px" stroke="#000000" stroke-width="1px" stroke-dashoffset="0" stroke-linejoin="miter" stroke-miterlimit="10" /><polygon points="290,647 272,639 272,655 " fill="#000000" /><text x="185px" y="639.091125488281px" font-family="Microsoft Sans Serif" font-size="10pt" fill="#000000">Unload</text></g><g transform="matrix(1 0 0 1 0 0)"><line x1="530px" y1="640px" x2="570px" y2="680px" stroke="#000000" stroke-width="2px" stroke-dashoffset="0" stroke-linejoin="miter" stroke-miterlimit="10" /><line x1="530px" y1="680px" x2="570px" y2="640px" stroke="#000000" stroke-width="2px" stroke-dashoffset="0" stroke-linejoin="miter" stroke-miterlimit="10" /></g><g transform="matrix(1 0 0 1 0 0)"><line x1="310px" y1="660px" x2="530px" y2="660px" stroke="#000000" stroke-width="1px" stroke-dashoffset="0" stroke-linejoin="miter" stroke-miterlimit="10" /><polygon points="530,660 512,652 512,668 " fill="#000000" /><text x="372px" y="652.091125488281px" font-family="Microsoft Sans Serif" font-size="10pt" fill="#000000">shutdownCoreClr</text></g><g transform="matrix(1 0 0 1 0 0)"><polygon points="660,480 790,480 800,490 800,530 660,530 660,480 " fill="url(#fs19)" /><g clip-path="url(#cp2)"><path d="M 800 496.6667 C 730 496.6667  660 496.6667  660 509.1667 L 660 480  800 480  800 496.6667 z " fill="url(#fs20)" /></g><polygon fill="none" points="660,480 790,480 800,490 800,530 660,530 660,480 " stroke="#FFA500" stroke-width="1px" stroke-dashoffset="0" stroke-linejoin="round" stroke-miterlimit="10" /><polygon points="790,480 800,490 790,490 790,480 " fill="url(#fs21)" /><g clip-path="url(#cp3)"><path d="M 800 483.3333 C 795 483.3333  790 483.3333  790 485.8333 L 790 480  800 480  800 483.3333 z " fill="url(#fs22)" /></g><polygon fill="none" points="790,480 800,490 790,490 790,480 " stroke="#FFA500" stroke-width="1px" stroke-dashoffset="0" stroke-linejoin="round" stroke-miterlimit="10" /><text x="686px" y="505.091156005859px" font-family="Microsoft Sans Serif" font-size="10pt" fill="#000000">static .Net Core</text><text x="708px" y="520.091125488281px" font-family="Microsoft Sans Serif" font-size="10pt" fill="#000000">method</text></g><g transform="matrix(1 0 0 1 0 0)"><polyline points="560,533 660,517 " fill="none" stroke="#000000" stroke-width="1px" stroke-dasharray="3,3" stroke-dashoffset="0" stroke-linejoin="miter" stroke-miterlimit="10" /></g></svg>